<svg xmlns="http://www.w3.org/2000/svg" width="1800" height="1450" viewBox="0 0 1800 1450" role="img" aria-labelledby="title desc" xml:lang="ja">
<title id="title">DayTrading.Monster プラグイン構成図</title>
<desc id="desc">Skill → データソース → 呼び出し関係 → 出力構成. 論理的な連携図であり、実行履歴ではありません。機能はホスト環境に依存し、定時実行・自動売買は内蔵しません。</desc>
<defs><marker id="arrow" viewBox="0 0 10 10" refX="9" refY="5" markerWidth="7" markerHeight="7" orient="auto-start-reverse"><path d="M0 0L10 5L0 10Z" fill="#64748b"/></marker><marker id="write" viewBox="0 0 10 10" refX="9" refY="5" markerWidth="7" markerHeight="7" orient="auto"><path d="M0 0L10 5L0 10Z" fill="#d97706"/></marker></defs>
<style>text{font-family:"Noto Sans CJK JP",sans-serif;fill:#172554}.h{font-size:26px;font-weight:700}.id{font-size:19px;font-weight:700}.body{font-size:20px}.small{font-size:18px;fill:#475569}.line{fill:none;stroke:#64748b;stroke-width:2.2;marker-end:url(#arrow)}.card{fill:white;stroke:#cbd5e1;stroke-width:1.2}</style>
<rect width="1800" height="1450" fill="#ffffff"/>
<text x="48" y="57" class="h" style="font-size:38px">DayTrading.Monster プラグイン構成図</text>
<text x="48" y="92" class="body" style="font-size:22px">Skill → データソース → 呼び出し関係 → 出力構成</text>
<text x="1750" y="85" class="small" style="font-size:16px" text-anchor="end">公開版 · 10 SKILLS</text>
<rect x="24" y="118" width="1752" height="122" rx="18" fill="#eff6ff"/>
<rect x="44" y="136" width="36" height="36" rx="10" fill="#2563eb"/>
<text x="62" y="162" class="h" style="font-size:24px;fill:#fff" text-anchor="middle">1</text>
<text x="94" y="163" class="h">ユーザーの質問</text>
<rect x="48" y="176" width="414" height="48" rx="10" fill="#fff" stroke="#bfdbfe"/>
<text x="255" y="207" class="id" style="font-size:21px" text-anchor="middle">個別株の変動 · なぜ上昇 / 下落？</text>
<rect x="478" y="176" width="414" height="48" rx="10" fill="#fff" stroke="#bfdbfe"/>
<text x="685" y="207" class="id" style="font-size:21px" text-anchor="middle">市場 / テーマ · 寄り前と振り返り</text>
<rect x="908" y="176" width="414" height="48" rx="10" fill="#fff" stroke="#bfdbfe"/>
<text x="1115" y="207" class="id" style="font-size:21px" text-anchor="middle">テクニカル / Gamma / 心理</text>
<rect x="1338" y="176" width="414" height="48" rx="10" fill="#fff" stroke="#bfdbfe"/>
<text x="1545" y="207" class="id" style="font-size:21px" text-anchor="middle">決算 / 経済イベント · カレンダー</text>
<path d="M900 244V272" class="line"/>
<text x="924" y="264" class="small" style="font-size:17px">質問の意図から入口を選択</text>
<rect x="24" y="272" width="1752" height="219" rx="18" fill="#f0fdf4"/>
<rect x="44" y="290" width="36" height="36" rx="10" fill="#15803d"/>
<text x="62" y="316" class="h" style="font-size:24px;fill:#fff" text-anchor="middle">2</text>
<text x="94" y="317" class="h">主 Skill · 入口と統合</text>
<rect x="48" y="337" width="269" height="86" rx="12" fill="#fff" stroke="#cbd5e1"/>
<rect x="48" y="337" width="5" height="86" rx="2" fill="#15803d"/>
<text x="65" y="366" class="id">market-daily-strategist</text>
<text x="65" y="396" class="body" style="font-size:19px">米国株 / 日本株 / A株の戦略</text>
<rect x="335" y="337" width="269" height="86" rx="12" fill="#fff" stroke="#cbd5e1"/>
<rect x="335" y="337" width="5" height="86" rx="2" fill="#15803d"/>
<text x="352" y="366" class="id">us-stock-move-reason</text>
<text x="352" y="396" class="body" style="font-size:20px">米国株 / ETFの変動分析</text>
<rect x="622" y="337" width="269" height="86" rx="12" fill="#fff" stroke="#cbd5e1"/>
<rect x="622" y="337" width="5" height="86" rx="2" fill="#15803d"/>
<text x="639" y="366" class="id">jp-stock-move-reason</text>
<text x="639" y="396" class="body" style="font-size:19px">日本株変動 / PTSランキング</text>
<rect x="909" y="337" width="269" height="86" rx="12" fill="#fff" stroke="#cbd5e1"/>
<rect x="909" y="337" width="5" height="86" rx="2" fill="#15803d"/>
<text x="926" y="366" class="id">cn-stock-move-reason</text>
<text x="926" y="396" class="body" style="font-size:20px">A株変動 / セクター連動</text>
<rect x="1196" y="337" width="269" height="86" rx="12" fill="#fff" stroke="#cbd5e1"/>
<rect x="1196" y="337" width="5" height="86" rx="2" fill="#15803d"/>
<text x="1213" y="366" class="id">cn-market-tape</text>
<text x="1213" y="396" class="body" style="font-size:17px">テーマ / 資金流 / 値幅上限銘柄</text>
<rect x="1483" y="337" width="269" height="86" rx="12" fill="#fff" stroke="#cbd5e1"/>
<rect x="1483" y="337" width="5" height="86" rx="2" fill="#d97706"/>
<text x="1500" y="366" class="id">market-calendar-google</text>
<text x="1500" y="396" class="body" style="font-size:20px">決算 / 経済イベント整理</text>
<text x="48" y="453" class="small">戦略 → 市場別の変動分析 + 補助Skill；米国株変動 → 4つの補助Skill。</text>
<text x="48" y="478" class="small">日本株 / A株変動 → 技術・心理・マクロ；A株市況 → A株変動 / マクロ（理由の説明時）。</text>
<path d="M900 495V526" class="line" stroke-dasharray="6 5"/>
<text x="924" y="516" class="small" style="font-size:17px">必要時に呼び出し</text>
<rect x="24" y="526" width="1752" height="188" rx="18" fill="#f5f3ff"/>
<rect x="44" y="544" width="36" height="36" rx="10" fill="#7c3aed"/>
<text x="62" y="570" class="h" style="font-size:24px;fill:#fff" text-anchor="middle">3</text>
<text x="94" y="571" class="h">補助 Skill · 必要に応じて連携</text>
<rect x="48" y="590" width="414" height="84" rx="12" fill="#fff" stroke="#cbd5e1"/>
<rect x="48" y="590" width="5" height="84" rx="2" fill="#2563eb"/>
<text x="65" y="619" class="id">stock-technical-analysis</text>
<text x="65" y="649" class="body" style="font-size:20px">トレンド · 支持 / 抵抗 · VWAP</text>
<rect x="478" y="590" width="414" height="84" rx="12" fill="#fff" stroke="#cbd5e1"/>
<rect x="478" y="590" width="5" height="84" rx="2" fill="#db2777"/>
<text x="495" y="619" class="id">stock-sentiment-analysis</text>
<text x="495" y="649" class="body" style="font-size:20px">期待差 · 主導 / 追随 · 過熱感</text>
<rect x="908" y="590" width="414" height="84" rx="12" fill="#fff" stroke="#cbd5e1"/>
<rect x="908" y="590" width="5" height="84" rx="2" fill="#7c3aed"/>
<text x="925" y="619" class="id">us-stock-gamma-moomoo</text>
<text x="925" y="649" class="body" style="font-size:20px">米国オプション · GEX / Flip / Wall</text>
<rect x="1338" y="590" width="414" height="84" rx="12" fill="#fff" stroke="#cbd5e1"/>
<rect x="1338" y="590" width="5" height="84" rx="2" fill="#0f766e"/>
<text x="1355" y="619" class="id">macro-news-check</text>
<text x="1355" y="649" class="body" style="font-size:20px">金利 · 為替 · 商品 · 市場全体</text>
<text x="48" y="700" class="small">補助Skillへの直接質問も可能。手掛かりに応じて選び、毎回すべてを呼び出すわけではありません。</text>
<path d="M900 719V756" class="line" marker-start="url(#arrow)"/>
<text x="924" y="743" class="small" style="font-size:17px">Skillが取得・検証し、証拠を受け取る</text>
<rect x="24" y="756" width="1752" height="356" rx="18" fill="#fffbeb"/>
<rect x="44" y="774" width="36" height="36" rx="10" fill="#b45309"/>
<text x="62" y="800" class="h" style="font-size:24px;fill:#fff" text-anchor="middle">4</text>
<text x="94" y="801" class="h">データソースと外部実行依存</text>
<rect x="48" y="820" width="364" height="252" rx="12" fill="#fff" stroke="#cbd5e1"/>
<rect x="48" y="820" width="5" height="252" rx="2" fill="#2563eb"/>
<text x="65" y="849" class="id">DTM 構造化API</text>
<text x="65" y="879" class="body" style="font-size:18px">/api/themes</text>
<text x="65" y="907" class="body" style="font-size:18px">/api/ratings-us · /api/ratings-jp</text>
<text x="65" y="935" class="body" style="font-size:18px">/api/chinastock-anomaly</text>
<text x="65" y="963" class="body" style="font-size:18px">/api/24hfeed/details</text>
<text x="65" y="991" class="body" style="font-size:18px">/api/24hfeed/x-monitor</text>
<text x="65" y="1019" class="body" style="font-size:18px">/api/pts/model1 / model2 / model3</text>
<rect x="428" y="820" width="244" height="252" rx="12" fill="#fff" stroke="#cbd5e1"/>
<rect x="428" y="820" width="5" height="252" rx="2" fill="#2563eb"/>
<text x="445" y="849" class="id">米国株の公開情報</text>
<text x="445" y="879" class="body" style="font-size:18px">企業IR / SEC</text>
<text x="445" y="907" class="body" style="font-size:18px">決算 / 見通し / 評価</text>
<text x="445" y="935" class="body" style="font-size:18px">株価 / 出来高</text>
<text x="445" y="963" class="body" style="font-size:18px">同業・業界ニュース</text>
<rect x="688" y="820" width="244" height="252" rx="12" fill="#fff" stroke="#cbd5e1"/>
<rect x="688" y="820" width="5" height="252" rx="2" fill="#2563eb"/>
<text x="705" y="849" class="id">日本株の公開情報</text>
<text x="705" y="879" class="body" style="font-size:18px">Yahoo Finance Japan</text>
<text x="705" y="907" class="body" style="font-size:18px">Kabutan / Traders Web</text>
<text x="705" y="935" class="body" style="font-size:18px">TDnet / 企業IR</text>
<text x="705" y="963" class="body" style="font-size:18px">Yahoo 掲示板</text>
<text x="705" y="991" class="body" style="font-size:18px">PTS：時間帯と遅延を明記</text>
<rect x="948" y="820" width="244" height="252" rx="12" fill="#fff" stroke="#cbd5e1"/>
<rect x="948" y="820" width="5" height="252" rx="2" fill="#2563eb"/>
<text x="965" y="849" class="id">A株の公開情報</text>
<text x="965" y="879" class="body" style="font-size:18px">Eastmoney株価 / 公告</text>
<text x="965" y="907" class="body" style="font-size:18px">股吧 / ニュース</text>
<text x="965" y="935" class="body" style="font-size:18px">Sohu指数 / セクター</text>
<text x="965" y="963" class="body" style="font-size:18px">騰落銘柄数 / 市場の広がり</text>
<rect x="1208" y="820" width="244" height="252" rx="12" fill="#fff" stroke="#cbd5e1"/>
<rect x="1208" y="820" width="5" height="252" rx="2" fill="#2563eb"/>
<text x="1225" y="849" class="id">マクロ / クロスアセット</text>
<text x="1225" y="879" class="body" style="font-size:18px">Jin10 / Wallstreetcn</text>
<text x="1225" y="907" class="body" style="font-size:18px">FinancialJuice</text>
<text x="1225" y="935" class="body" style="font-size:18px">JPX指数 / 業種別指数</text>
<text x="1225" y="963" class="body" style="font-size:17px">米国債 / 日本国債 / USDJPY</text>
<text x="1225" y="991" class="body" style="font-size:18px">DXY / 原油 / 金</text>
<rect x="1468" y="820" width="284" height="252" rx="12" fill="#fff" stroke="#cbd5e1"/>
<rect x="1468" y="820" width="5" height="252" rx="2" fill="#d97706"/>
<text x="1485" y="849" class="id">外部ツール / 実行依存</text>
<text x="1485" y="879" class="body" style="font-size:18px">moomoo skills / OpenD</text>
<text x="1485" y="907" class="body" style="font-size:18px">Python SDK / moomooapi</text>
<text x="1485" y="935" class="body" style="font-size:18px">Eastmoney Miaoxiang (MX)</text>
<text x="1485" y="963" class="body" style="font-size:18px">Google Calendar</text>
<text x="1485" y="991" class="body" style="font-size:18px">別途導入 / 接続 / 認可が必要</text>
<text x="48" y="1097" class="small">時刻・取引日・遅延を確認。テーマや投稿は手掛かりとし、主要材料は開示・原報道・価格で検証します。</text>
<path d="M900 1117V1151" class="line"/>
<text x="924" y="1140" class="small" style="font-size:17px">主Skillが証拠を統合し、結果を作成</text>
<rect x="24" y="1151" width="1752" height="185" rx="18" fill="#f0fdfa"/>
<rect x="44" y="1169" width="36" height="36" rx="10" fill="#0f766e"/>
<text x="62" y="1195" class="h" style="font-size:24px;fill:#fff" text-anchor="middle">5</text>
<text x="94" y="1196" class="h">出力構成</text>
<rect x="48" y="1215" width="328" height="102" rx="12" fill="#fff" stroke="#cbd5e1"/>
<rect x="48" y="1215" width="5" height="102" rx="2" fill="#0f766e"/>
<text x="65" y="1244" class="id">変動理由の分析</text>
<text x="65" y="1274" class="body" style="font-size:19px">主因 / 補助要因 / 確度</text>
<text x="65" y="1302" class="body" style="font-size:19px">投稿の温度感 / リスク</text>
<rect x="392" y="1215" width="328" height="102" rx="12" fill="#fff" stroke="#cbd5e1"/>
<rect x="392" y="1215" width="5" height="102" rx="2" fill="#0f766e"/>
<text x="409" y="1244" class="id">戦略レポート</text>
<text x="409" y="1274" class="body" style="font-size:19px">方向性 / テーマ / リスク</text>
<text x="409" y="1302" class="body" style="font-size:19px">次の確認条件</text>
<rect x="736" y="1215" width="328" height="102" rx="12" fill="#fff" stroke="#cbd5e1"/>
<rect x="736" y="1215" width="5" height="102" rx="2" fill="#0f766e"/>
<text x="753" y="1244" class="id">A株市況</text>
<text x="753" y="1274" class="body" style="font-size:19px">TOP / BOTTOM / 資金流</text>
<text x="753" y="1302" class="body" style="font-size:19px">値幅上限構造 / 機関調査</text>
<rect x="1080" y="1215" width="328" height="102" rx="12" fill="#fff" stroke="#cbd5e1"/>
<rect x="1080" y="1215" width="5" height="102" rx="2" fill="#0f766e"/>
<text x="1097" y="1244" class="id">個別テーマ分析</text>
<text x="1097" y="1274" class="body" style="font-size:19px">技術 / 心理 / Gamma</text>
<text x="1097" y="1302" class="body" style="font-size:19px">重要水準 / 条件付き判断</text>
<rect x="1424" y="1215" width="328" height="102" rx="12" fill="#fff" stroke="#cbd5e1"/>
<rect x="1424" y="1215" width="5" height="102" rx="2" fill="#d97706"/>
<text x="1441" y="1244" class="id">カレンダー操作</text>
<text x="1441" y="1274" class="body" style="font-size:19px">予定 / 時間帯 / 重複排除</text>
<text x="1441" y="1302" class="body" style="font-size:19px">明示的な依頼後に書き込み</text>
<path d="M1752 381H1770V978H1754M1770 978V1266H1754" fill="none" stroke="#d97706" stroke-width="2" stroke-dasharray="6 5" marker-end="url(#write)"/>
<rect x="24" y="1360" width="1752" height="68" rx="16" fill="#eef2ff"/>
<text x="900" y="1389" class="id" style="font-size:21px" text-anchor="middle">基本ロジック：変動を確認 → 確かな材料を探す → 業種と増幅要因を検証 → 条件付きの結論</text>
<text x="900" y="1416" class="small" style="font-size:17px" text-anchor="middle">論理的な連携図であり、実行履歴ではありません。機能はホスト環境に依存し、定時実行・自動売買は内蔵しません。</text>
</svg>
